<?xml version="1.0" encoding="UTF-8" standalone="no"?>
<!-- Created with Inkscape (http://www.inkscape.org/) -->

<svg
   xmlns:dc="http://purl.org/dc/elements/1.1/"
   xmlns:cc="http://creativecommons.org/ns#"
   xmlns:rdf="http://www.w3.org/1999/02/22-rdf-syntax-ns#"
   xmlns:svg="http://www.w3.org/2000/svg"
   xmlns="http://www.w3.org/2000/svg"
   xmlns:sodipodi="http://sodipodi.sourceforge.net/DTD/sodipodi-0.dtd"
   xmlns:inkscape="http://www.inkscape.org/namespaces/inkscape"
   width="10.419765mm"
   height="9.8530951mm"
   viewBox="0 0 10.419765 9.8530951"
   version="1.1"
   id="svg4511"
   inkscape:version="0.92.1 r15371"
   sodipodi:docname="M32x32.svg">
  <defs
     id="defs4505" />
  <sodipodi:namedview
     id="base"
     pagecolor="#ffffff"
     bordercolor="#666666"
     borderopacity="1.0"
     inkscape:pageopacity="0.0"
     inkscape:pageshadow="2"
     inkscape:zoom="44.8"
     inkscape:cx="16.812134"
     inkscape:cy="15.529818"
     inkscape:document-units="px"
     inkscape:current-layer="layer2"
     showgrid="false"
     fit-margin-top="0"
     fit-margin-left="0"
     fit-margin-right="0"
     fit-margin-bottom="0"
     inkscape:pagecheckerboard="true"
     inkscape:window-width="3700"
     inkscape:window-height="2126"
     inkscape:window-x="129"
     inkscape:window-y="-11"
     inkscape:window-maximized="1" />
  <metadata
     id="metadata4508">
    <rdf:RDF>
      <cc:Work
         rdf:about="">
        <dc:format>image/svg+xml</dc:format>
        <dc:type
           rdf:resource="http://purl.org/dc/dcmitype/StillImage" />
        <dc:title></dc:title>
      </cc:Work>
    </rdf:RDF>
  </metadata>
  <g
     inkscape:groupmode="layer"
     id="layer2"
     inkscape:label="BackgroundWhite"
     style="display:inline"
     transform="translate(-77.787502,-149.97673)">
    <rect
       style="fill:#ffffff;fill-opacity:1;stroke:#000000;stroke-width:0;stroke-linecap:round;stroke-linejoin:round;stroke-miterlimit:4;stroke-dasharray:none;stroke-opacity:1"
       id="rect4554"
       width="8.4666662"
       height="8.4666662"
       x="78.735474"
       y="150.54221"
       ry="0.078482024" />
  </g>
  <g
     transform="translate(-77.787502,-149.97673)"
     style="display:inline"
     inkscape:label="BackgroundDGreen"
     id="g4573"
     inkscape:groupmode="layer">
    <rect
       ry="0.078482024"
       y="150.54221"
       x="78.735474"
       height="8.4666662"
       width="8.4666662"
       id="rect4571"
       style="fill:#2b5973;fill-opacity:1;stroke:#000000;stroke-width:0;stroke-linecap:round;stroke-linejoin:round;stroke-miterlimit:4;stroke-dasharray:none;stroke-opacity:1" />
  </g>
  <g
     inkscape:groupmode="layer"
     id="layer3"
     inkscape:label="Mdgreen"
     style="display:inline">
    <g
       id="g4527"
       transform="matrix(0.17890217,0,0,0.18832835,-0.75169555,-0.84812893)">
      <path
         style="display:inline;fill:#2b5973;stroke-width:0.07388741"
         d="m 13.495131,48.258307 c -0.02731,-0.02685 -0.04965,-8.368871 -0.04965,-18.537752 0,-15.532311 0.01625,-18.502161 0.101653,-18.571927 0.07317,-0.05974 1.038299,-0.0777 3.444338,-0.06395 l 3.342685,0.01909 0.601957,1.392835 c 11.59347,27.094678 1.745758,4.130724 12.058314,28.132173 4.104865,-8.44505 9.182671,-21.048748 13.053365,-29.433373 0.105364,-0.118515 0.36221,-0.128289 3.370177,-0.128289 2.648397,0 3.271739,0.01853 3.339848,0.09932 0.06159,0.07309 0.07879,4.985585 0.06498,18.601707 l -0.01876,18.502388 h -2.532055 -2.532059 l -0.0372,-14.148295 C 47.672064,22.47872 47.648114,19.973942 47.567287,19.973942 43.043484,29.854229 38.991189,39.458446 35.078247,48.270529 l -1.978789,0.01948 c -1.813899,0.0179 -1.98814,0.0086 -2.091034,-0.109963 -3.749245,-8.411669 -7.12409,-16.297166 -10.336232,-23.754207 -1.773391,-4.117241 -1.945103,-4.4936 -2.027352,-4.443566 -0.154679,10.052267 0.04726,17.21873 -0.08943,28.237956 -0.04032,0.06423 -0.701951,0.08693 -2.532594,0.08693 -1.362905,0 -2.500352,-0.022 -2.527658,-0.04885 z"
         id="path4535"
         inkscape:connector-curvature="0"
         sodipodi:nodetypes="csccccccscscccccccccccscc"
         inkscape:label="path4535" />
    </g>
  </g>
  <g
     inkscape:label="Mwhite"
     id="g4567"
     inkscape:groupmode="layer"
     style="display:inline">
    <g
       transform="matrix(0.17890217,0,0,0.18832835,-0.75169555,-0.84812893)"
       id="g4565">
      <path
         inkscape:label="path4535"
         sodipodi:nodetypes="csccccccscscccccccccccscc"
         inkscape:connector-curvature="0"
         id="path4563"
         d="m 13.495131,48.258307 c -0.02731,-0.02685 -0.04965,-8.368871 -0.04965,-18.537752 0,-15.532311 0.01625,-18.502161 0.101653,-18.571927 0.07317,-0.05974 1.038299,-0.0777 3.444338,-0.06395 l 3.342685,0.01909 0.601957,1.392835 c 11.59347,27.094678 1.745758,4.130724 12.058314,28.132173 4.104865,-8.44505 9.182671,-21.048748 13.053365,-29.433373 0.105364,-0.118515 0.36221,-0.128289 3.370177,-0.128289 2.648397,0 3.271739,0.01853 3.339848,0.09932 0.06159,0.07309 0.07879,4.985585 0.06498,18.601707 l -0.01876,18.502388 h -2.532055 -2.532059 l -0.0372,-14.148295 C 47.672064,22.47872 47.648114,19.973942 47.567287,19.973942 43.043484,29.854229 38.991189,39.458446 35.078247,48.270529 l -1.978789,0.01948 c -1.813899,0.0179 -1.98814,0.0086 -2.091034,-0.109963 -3.749245,-8.411669 -7.12409,-16.297166 -10.336232,-23.754207 -1.773391,-4.117241 -1.945103,-4.4936 -2.027352,-4.443566 -0.154679,10.052267 0.04726,17.21873 -0.08943,28.237956 -0.04032,0.06423 -0.701951,0.08693 -2.532594,0.08693 -1.362905,0 -2.500352,-0.022 -2.527658,-0.04885 z"
         style="display:inline;fill:#ffffff;stroke-width:0.07388741" />
    </g>
  </g>
</svg>
